<svg id="visual" viewBox="0 0 960 540" width="960" height="540" xmlns="http://www.w3.org/2000/svg" xmlns:xlink="http://www.w3.org/1999/xlink" version="1.1"><rect x="0" y="0" width="960" height="540" fill="#ffffff"></rect><path d="M0 44L6 49.5C12 55 24 66 35.8 66.7C47.7 67.3 59.3 57.7 71.2 54.7C83 51.7 95 55.3 106.8 55.2C118.7 55 130.3 51 142.2 51.5C154 52 166 57 177.8 53.7C189.7 50.3 201.3 38.7 213.2 37.8C225 37 237 47 248.8 47.8C260.7 48.7 272.3 40.3 284.2 37C296 33.7 308 35.3 320 35.2C332 35 344 33 355.8 35.3C367.7 37.7 379.3 44.3 391.2 48.2C403 52 415 53 426.8 53.7C438.7 54.3 450.3 54.7 462.2 50C474 45.3 486 35.7 497.8 33.8C509.7 32 521.3 38 533.2 39.3C545 40.7 557 37.3 568.8 34.2C580.7 31 592.3 28 604.2 34.8C616 41.7 628 58.3 640 66.2C652 74 664 73 675.8 66.2C687.7 59.3 699.3 46.7 711.2 40.3C723 34 735 34 746.8 42.2C758.7 50.3 770.3 66.7 782.2 73.3C794 80 806 77 817.8 69.7C829.7 62.3 841.3 50.7 853.2 47C865 43.3 877 47.7 888.8 49.7C900.7 51.7 912.3 51.3 924.2 47.7C936 44 948 37 954 33.5L960 30L960 0L954 0C948 0 936 0 924.2 0C912.3 0 900.7 0 888.8 0C877 0 865 0 853.2 0C841.3 0 829.7 0 817.8 0C806 0 794 0 782.2 0C770.3 0 758.7 0 746.8 0C735 0 723 0 711.2 0C699.3 0 687.7 0 675.8 0C664 0 652 0 640 0C628 0 616 0 604.2 0C592.3 0 580.7 0 568.8 0C557 0 545 0 533.2 0C521.3 0 509.7 0 497.8 0C486 0 474 0 462.2 0C450.3 0 438.7 0 426.8 0C415 0 403 0 391.2 0C379.3 0 367.7 0 355.8 0C344 0 332 0 320 0C308 0 296 0 284.2 0C272.3 0 260.7 0 248.8 0C237 0 225 0 213.2 0C201.3 0 189.7 0 177.8 0C166 0 154 0 142.2 0C130.3 0 118.7 0 106.8 0C95 0 83 0 71.2 0C59.3 0 47.7 0 35.8 0C24 0 12 0 6 0L0 0Z" fill="#f5d044" stroke-linecap="round" stroke-linejoin="miter"></path></svg>